<?xml version="1.0" encoding="UTF-8" standalone="no"?>
<!-- Created with Inkscape (http://www.inkscape.org/) -->

<svg
   xmlns:dc="http://purl.org/dc/elements/1.1/"
   xmlns:cc="http://creativecommons.org/ns#"
   xmlns:rdf="http://www.w3.org/1999/02/22-rdf-syntax-ns#"
   xmlns:svg="http://www.w3.org/2000/svg"
   xmlns="http://www.w3.org/2000/svg"
   version="1.1"
   width="410.41626"
   height="35.486897"
   id="svg2">
  <defs
     id="defs4" />
  <metadata
     id="metadata7">
    <rdf:RDF>
      <cc:Work
         rdf:about="">
        <dc:format>image/svg+xml</dc:format>
        <dc:type
           rdf:resource="http://purl.org/dc/dcmitype/StillImage" />
        <dc:title></dc:title>
      </cc:Work>
    </rdf:RDF>
  </metadata>
  <g
     transform="translate(-161.93094,-439.49436)"
     id="layer1">
    <g
       transform="scale(1.5446323,0.64740329)"
       id="text2985">
      <path
         d="m 138.08837,715.11054 8.12446,3.3121 c -1.83805,5.82842 -5.63864,11.38975 -11.47883,13.74369 -5.09907,2.02813 -10.97698,1.87816 -16.13138,0.10588 -6.98748,-2.52511 -11.36625,-9.40494 -12.76654,-16.44682 -1.47368,-7.41647 -1.39847,-15.25435 0.745,-22.53379 1.77085,-6.02992 6.2376,-11.42085 12.38795,-13.26048 5.58178,-1.64395 11.88576,-1.57447 17.1917,0.95903 5.00054,2.42242 8.13199,7.49891 9.48658,12.73824 l -8.03034,2.67678 c -1.10798,-5.14745 -6.12289,-9.08844 -11.41977,-8.7038 -4.45351,-0.0973 -8.63682,2.82222 -10.22777,6.95662 -2.38506,5.84803 -2.31291,12.43201 -1.3238,18.5781 0.84385,4.78134 3.63588,9.8713 8.644,11.19209 5.53435,2.25664 10.55103,-1.06107 14.79874,-9.31764 z"
         fill='#880000'
         id="path2990" />
      <path
         d="m 152.16961,732.86218 0,-53.12092 9.16138,0 0,53.12092"
         fill='#880000'
         id="path2992" />
      <path
         d="m 196.31765,732.86218 -18.96367,-40.90574 0.56551,40.90574 -8.10574,0 0,-53.12092 10.40551,0 19.26529,41.24506 -0.56552,-41.24506 8.10575,0 0,53.12092 z"
         fill='#880000'
         id="path2994" />
      <path
         d="m 248.26984,720.4208 c 0,-2.45057 0,-4.90115 0,-7.35172 -3.54391,0 -7.08782,0 -10.63173,0 0,-2.73962 0,-5.47923 0,-8.21885 6.33379,0 12.66759,0 19.00138,0 0,6.50973 0,13.01946 0,19.52919 -6.52345,7.97438 -18.053,10.96587 -27.84319,8.27452 -6.56535,-1.84221 -11.37228,-7.58271 -13.19344,-14.00524 -2.18893,-7.60745 -2.28501,-15.82361 -0.44273,-23.51241 1.52786,-6.43649 5.84413,-12.44329 12.23682,-14.71462 5.62741,-2.00599 12.02841,-2.01595 17.63764,0.0501 5.38352,1.96013 9.16946,6.90141 10.66237,12.31411 -2.80245,1.0305 -5.6049,2.061 -8.40735,3.0915 -1.31646,-4.40215 -5.30991,-7.93465 -9.98611,-8.13871 -4.60931,-0.52056 -9.52382,1.67999 -11.6548,5.91112 -2.95934,5.70926 -2.92805,12.47414 -2.06546,18.69799 0.73764,5.17621 3.74054,10.69416 9.12175,12.11812 5.13726,0.70138 11.04781,0.29498 15.56485,-4.0451 z"
         fill='#880000'
         id="path2996" />
      <path
         d="m 292.90799,732.86218 0,-22.77149 -18.96368,0 0,22.77149 -9.12367,0 0,-53.12092 9.12367,0 0,21.15035 18.96368,0 0,-21.15035 9.12368,0 0,53.12092 -9.12368,0"
         fill='#880000'
         id="path2998" />
      <path
         d="m 310.51442,732.86218 0,-53.12092 9.16138,0 0,53.12092"
         fill='#880000'
         id="path3000" />
      <path
         d="m 370.53466,706.05667 c 0.13123,8.61409 -2.41746,18.00549 -9.43909,23.54159 -8.98972,6.89751 -23.87639,4.90551 -29.88154,-4.99532 -5.30885,-8.51864 -5.53336,-19.20837 -3.54501,-28.77898 1.62542,-6.71327 6.04713,-13.20021 12.80022,-15.51064 9.22753,-3.61621 21.27957,-0.40527 26.12354,8.6101 2.95216,5.17847 3.91206,11.2435 3.94188,17.13325 z m -9.31218,0 c 0.0896,-6.22031 -1.41733,-13.45257 -7.07176,-16.98524 -6.13814,-3.64452 -15.25559,0.0369 -16.85778,7.07585 -2.4822,7.24486 -2.06219,15.42475 0.97236,22.43452 2.71383,5.22942 9.67424,8.13116 15.08465,5.30811 4.88163,-2.28364 7.13278,-7.76291 7.56455,-12.85542 0.20397,-1.65116 0.28169,-3.31521 0.30798,-4.97782 z"
         fill='#880000'
         id="path3002" />
    </g>
  </g>
</svg>
