<?xml version="1.0" encoding="UTF-8" standalone="no"?>
<!-- Created with Inkscape (http://www.inkscape.org/) -->

<svg
   xmlns:dc="http://purl.org/dc/elements/1.1/"
   xmlns:cc="http://creativecommons.org/ns#"
   xmlns:rdf="http://www.w3.org/1999/02/22-rdf-syntax-ns#"
   xmlns:svg="http://www.w3.org/2000/svg"
   xmlns="http://www.w3.org/2000/svg"
   xmlns:sodipodi="http://sodipodi.sourceforge.net/DTD/sodipodi-0.dtd"
   xmlns:inkscape="http://www.inkscape.org/namespaces/inkscape"
   width="254.07216"
   height="130.44859"
   id="svg2"
   version="1.1"
   inkscape:version="0.48.4 r9939"
   sodipodi:docname="cp.svg">
  <defs
     id="defs4" />
  <sodipodi:namedview
     id="base"
     pagecolor="#ffffff"
     bordercolor="#666666"
     borderopacity="1.0"
     inkscape:pageopacity="0.0"
     inkscape:pageshadow="2"
     inkscape:zoom="1.4"
     inkscape:cx="215.72847"
     inkscape:cy="66.085749"
     inkscape:document-units="px"
     inkscape:current-layer="layer1"
     showgrid="false"
     inkscape:window-width="1680"
     inkscape:window-height="995"
     inkscape:window-x="1280"
     inkscape:window-y="0"
     inkscape:window-maximized="1"
     fit-margin-top="0"
     fit-margin-left="0"
     fit-margin-right="0"
     fit-margin-bottom="0">
    <inkscape:grid
       type="xygrid"
       id="grid2997"
       empspacing="5"
       visible="true"
       enabled="true"
       snapvisiblegridlinesonly="true"
       originx="-105.85044px"
       originy="-539.62854px" />
  </sodipodi:namedview>
  <metadata
     id="metadata7">
    <rdf:RDF>
      <cc:Work
         rdf:about="">
        <dc:format>image/svg+xml</dc:format>
        <dc:type
           rdf:resource="http://purl.org/dc/dcmitype/StillImage" />
        <dc:title></dc:title>
      </cc:Work>
    </rdf:RDF>
  </metadata>
  <g
     inkscape:label="Layer 1"
     inkscape:groupmode="layer"
     id="layer1"
     transform="translate(-105.85044,-382.28505)">
    <g
       style="font-size:200px;font-style:normal;font-variant:normal;font-weight:500;font-stretch:normal;text-align:start;line-height:125%;letter-spacing:0px;word-spacing:0px;writing-mode:lr-tb;text-anchor:start;fill:#ffffff;fill-opacity:1;stroke:none;font-family:Inconsolata;-inkscape-font-specification:Inconsolata Medium"
       id="text2985"
       transform="matrix(1.0167673,0,0,1.0167673,-3.9604293,-10.77066)">
      <path
         d="m 155.4,386.76218 c -19.39998,0 -47.4,14.20005 -47.4,64.2 0,47.99995 26.80002,63.6 47.4,63.6 14.79999,0 28.60001,-7.80001 36.4,-20.6 l -10.2,-6.6 c -5.79999,9.39999 -15.80001,15 -25.4,15 -18.39998,0 -34.6,-19.00003 -34.6,-52.8 0,-32.99996 15.80002,-51.6 33.4,-51.6 9.59999,0 18.8,5.80001 23.8,14.6 0.4,0.6 0.8,1.2 0.8,2 0,0.6 -0.2,1 -0.2,1.6 0,0.2 0,1.2 1,1.8 l 13.2,-6.4 c -6.59999,-14.99998 -21.60002,-24.8 -38.2,-24.8"
         style="fill:#ffffff"
         id="path3008"
         inkscape:connector-curvature="0" />
    </g>
    <g
       style="font-size:200px;font-style:normal;font-variant:normal;font-weight:500;font-stretch:normal;text-align:start;line-height:125%;letter-spacing:0px;word-spacing:0px;writing-mode:lr-tb;text-anchor:start;fill:#ffffff;fill-opacity:1;stroke:none;font-family:Inconsolata;-inkscape-font-specification:Inconsolata Medium"
       id="text2989"
       transform="matrix(1.0429947,0,0,1.0429947,-20.645494,-22.028872)">
      <path
         d="m 247.6,387.76218 0,124.6 14.6,0 0,-55 24.4,0 c 7.79999,0 15.20001,-0.2 22.8,-4 11.59999,-5.79999 17.6,-17.80001 17.6,-30.4 0,-12.59998 -6.00001,-24.8 -17.8,-30.8 -7.79999,-4.19999 -15.60001,-4.4 -23.6,-4.4 l -38,0 m 14.6,13.2 23.4,0 c 5.19999,0 10.20001,0.20001 15.4,2.6 7.59999,4 11.8,12.00001 11.8,20 0,7.99999 -4.00001,15.40001 -11.2,19 -4.8,2.4 -9.6,2.6 -14.4,2.6 l -25.2,0 0.2,-44.2"
         style="fill:#ffffff"
         id="path3024"
         inkscape:connector-curvature="0" />
    </g>
    <g
       transform="matrix(0,-1.0488147,1.0488147,0,-15.006477,-21.283154)"
       style="font-size:43.48851013000000165px;font-style:normal;font-variant:normal;font-weight:500;font-stretch:normal;text-align:start;line-height:125%;letter-spacing:0px;word-spacing:0px;writing-mode:lr-tb;text-anchor:start;fill:#ffffff;fill-opacity:1;stroke:none;font-family:Inconsolata;-inkscape-font-specification:Inconsolata Medium"
       id="text2993">
      <path
         d="m -508.90127,208.13823 0,2.56582 4.78374,0 0,14.82959 -5.04467,0 0,2.47884 12.8726,0 0,-2.47884 -4.65327,0 0,-17.39541 -7.9584,0 m 6.4363,-8.61072 c -1.26116,0 -2.2614,1.00023 -2.2614,2.21791 0,1.21768 1.00024,2.21792 2.2614,2.21792 1.26117,0 2.26141,-1.00024 2.26141,-2.21792 0,-1.21768 -1.00024,-2.21791 -2.26141,-2.21791"
         style="fill:#ffffff"
         id="path3011"
         inkscape:connector-curvature="0" />
      <path
         d="m -488.80957,228.01248 3.17466,0 0,-11.43748 c 0,-1.30465 0.17395,-2.30489 1.00023,-3.3921 0.73931,-1.00023 2.6528,-2.78326 4.74025,-2.78326 1.00024,0 2.00047,0.43488 2.69629,1.26116 1.08721,1.30466 1.08721,3.00071 1.08721,4.39234 l 0,11.95934 3.08769,0 0,-12.04632 c 0,-1.52209 -1e-5,-3.17466 -0.69582,-4.78373 -1.00024,-2.21791 -3.0442,-3.47908 -5.3056,-3.47908 -2.69628,0 -5.13164,1.73954 -6.61025,3.95745 l 0,-3.47908 -3.17466,0 0,19.83076"
         style="fill:#ffffff"
         id="path3013"
         inkscape:connector-curvature="0" />
      <path
         d="m -464.58647,214.35709 c 0,-2.39187 2.00047,-4.34885 4.39234,-4.34885 2.43535,0 4.39234,1.95698 4.39234,4.34885 0,2.39187 -1.95699,4.34885 -4.39234,4.34885 -2.43536,0 -4.39234,-1.95698 -4.39234,-4.34885 m 4.56629,-6.8277 c -3.95745,0 -7.39305,3.13118 -7.39305,7.00165 0,2.17443 1.08722,4.21839 2.91373,5.39258 -1.43512,1.21768 -2.2614,2.56582 -2.2614,3.82699 0,0.82628 0.34791,2.00047 1.60908,2.6528 -2.13094,1.34814 -3.21815,2.82675 -3.21815,4.39234 0,2.17442 2.00047,4.74024 8.95863,4.74024 6.74071,0 9.17607,-3.43559 9.17607,-6.08839 0,-1.73954 -1.00023,-3.47908 -3.08768,-4.30536 -2.08745,-0.86977 -4.47932,-0.56535 -6.74072,-0.56535 -1.47861,0 -2.43536,-0.13047 -2.82675,-0.26093 -0.78279,-0.21744 -1.21768,-0.69582 -1.21768,-1.30466 0,-1.04372 1.21768,-2.04396 1.43512,-2.21791 0.78279,0.30442 1.65257,0.43488 2.52233,0.43488 3.91397,0 7.13212,-3.13117 7.13212,-6.7842 0,-1.21768 -0.34791,-2.39187 -1.00024,-3.39211 1.04373,-0.60884 2.26141,-0.95674 3.47909,-0.95674 0.39139,0 0.7393,0.0435 1.1307,0.13046 l -0.34791,-2.56582 c -2.00047,-0.17395 -4.00095,0.47837 -5.52304,1.73954 -1.26117,-1.21768 -2.91373,-1.87001 -4.74025,-1.87001 m -3.00071,19.43937 c 0.73931,0.087 1.78303,0.17395 3.30513,0.26093 1.47861,0.0435 3.08769,-0.087 4.21839,0.087 1.82651,0.30441 2.39186,1.43512 2.39186,2.30489 0,0.86977 -0.52186,1.91349 -1.87,2.6528 -1.47861,0.78279 -3.13118,0.86977 -4.47932,0.86977 -0.91326,0 -2.60931,-0.0435 -4.08792,-0.65233 -1.60907,-0.65233 -1.95698,-1.73954 -1.95698,-2.43536 0,-1.43512 1.34814,-2.47884 2.47884,-3.08768"
         style="fill:#ffffff"
         id="path3015"
         inkscape:connector-curvature="0" />
      <path
         d="m -445.27757,228.01248 3.21814,0 0,-11.43748 c 0,-1.30465 0.13047,-2.30489 0.95675,-3.3921 0.78279,-1.00023 2.69629,-2.78326 4.78374,-2.78326 1.00023,0 2.00047,0.43488 2.69629,1.26116 1.08721,1.30466 1.08721,3.00071 1.08721,4.39234 l 0,11.95934 3.08768,0 0,-12.04632 c 0,-1.52209 -0.0435,-3.17466 -0.7393,-4.78373 -1.00024,-2.21791 -3.00071,-3.47908 -5.26211,-3.47908 -2.69629,0 -5.17514,1.73954 -6.61026,3.95745 l 0,-11.52445 c 0,-0.13047 0,-0.26093 0.13047,-0.3914 0.13047,-0.13047 0.30442,-0.26093 0.30442,-0.47837 0,-0.0435 0,-0.087 -0.0435,-0.13047 l -3.60954,0 0,28.87637"
         style="fill:#ffffff"
         id="path3017"
         inkscape:connector-curvature="0" />
      <path
         d="m -421.92425,208.13823 0,2.56582 4.78374,0 0,14.82959 -5.04467,0 0,2.47884 12.8726,0 0,-2.47884 -4.65327,0 0,-17.39541 -7.9584,0 m 6.4363,-8.61072 c -1.26116,0 -2.2614,1.00023 -2.2614,2.21791 0,1.21768 1.00024,2.21792 2.2614,2.21792 1.26117,0 2.26141,-1.00024 2.26141,-2.21792 0,-1.21768 -1.00024,-2.21791 -2.26141,-2.21791"
         style="fill:#ffffff"
         id="path3019"
         inkscape:connector-curvature="0" />
      <path
         d="m -384.78506,218.18408 c 0,-6.87118 -4.34885,-10.43724 -8.87165,-10.43724 -5.04467,0 -9.39352,4.34885 -9.39352,10.52422 0,6.04489 4.30537,10.30677 9.30654,10.30677 4.69675,0 8.95863,-3.7835 8.95863,-10.39375 m -9.0891,-7.78444 c 2.87024,0 5.91444,2.47885 5.91444,7.9149 0,5.00118 -2.87024,7.52352 -5.74048,7.52352 -3.17466,0 -6.0449,-2.95723 -6.0449,-7.87142 0,-4.87071 2.82675,-7.567 5.87094,-7.567"
         style="fill:#ffffff"
         id="path3021"
         inkscape:connector-curvature="0" />
    </g>
    <g
       transform="matrix(0,-1.0459432,1.0459432,0,-26.591058,-20.178263)"
       style="font-size:43.48851013000000165px;font-style:normal;font-variant:normal;font-weight:500;font-stretch:normal;text-align:start;line-height:125%;letter-spacing:0px;word-spacing:0px;writing-mode:lr-tb;text-anchor:start;fill:#ffffff;fill-opacity:1;stroke:none;font-family:Inconsolata;-inkscape-font-specification:Inconsolata Medium"
       id="text2999">
      <path
         d="m -508.90127,342.13823 0,2.56582 4.78374,0 0,14.82959 -5.04467,0 0,2.47884 12.8726,0 0,-2.47884 -4.65327,0 0,-17.39541 -7.9584,0 m 6.4363,-8.61072 c -1.26116,0 -2.2614,1.00023 -2.2614,2.21791 0,1.21768 1.00024,2.21792 2.2614,2.21792 1.26117,0 2.26141,-1.00024 2.26141,-2.21792 0,-1.21768 -1.00024,-2.21791 -2.26141,-2.21791"
         style="fill:#ffffff"
         id="path3027"
         inkscape:connector-curvature="0" />
      <path
         d="m -488.80957,362.01248 3.17466,0 0,-11.43748 c 0,-1.30465 0.17395,-2.30489 1.00023,-3.3921 0.73931,-1.00023 2.6528,-2.78326 4.74025,-2.78326 1.00024,0 2.00047,0.43488 2.69629,1.26116 1.08721,1.30466 1.08721,3.00071 1.08721,4.39234 l 0,11.95934 3.08769,0 0,-12.04632 c 0,-1.52209 -1e-5,-3.17466 -0.69582,-4.78373 -1.00024,-2.21791 -3.0442,-3.47908 -5.3056,-3.47908 -2.69628,0 -5.13164,1.73954 -6.61025,3.95745 l 0,-3.47908 -3.17466,0 0,19.83076"
         style="fill:#ffffff"
         id="path3029"
         inkscape:connector-curvature="0" />
      <path
         d="m -464.58647,348.35709 c 0,-2.39187 2.00047,-4.34885 4.39234,-4.34885 2.43535,0 4.39234,1.95698 4.39234,4.34885 0,2.39187 -1.95699,4.34885 -4.39234,4.34885 -2.43536,0 -4.39234,-1.95698 -4.39234,-4.34885 m 4.56629,-6.8277 c -3.95745,0 -7.39305,3.13118 -7.39305,7.00165 0,2.17443 1.08722,4.21839 2.91373,5.39258 -1.43512,1.21768 -2.2614,2.56582 -2.2614,3.82699 0,0.82628 0.34791,2.00047 1.60908,2.6528 -2.13094,1.34814 -3.21815,2.82675 -3.21815,4.39234 0,2.17442 2.00047,4.74024 8.95863,4.74024 6.74071,0 9.17607,-3.43559 9.17607,-6.08839 0,-1.73954 -1.00023,-3.47908 -3.08768,-4.30536 -2.08745,-0.86977 -4.47932,-0.56535 -6.74072,-0.56535 -1.47861,0 -2.43536,-0.13047 -2.82675,-0.26093 -0.78279,-0.21744 -1.21768,-0.69582 -1.21768,-1.30466 0,-1.04372 1.21768,-2.04396 1.43512,-2.21791 0.78279,0.30442 1.65257,0.43488 2.52233,0.43488 3.91397,0 7.13212,-3.13117 7.13212,-6.7842 0,-1.21768 -0.34791,-2.39187 -1.00024,-3.39211 1.04373,-0.60884 2.26141,-0.95674 3.47909,-0.95674 0.39139,0 0.7393,0.0435 1.1307,0.13046 l -0.34791,-2.56582 c -2.00047,-0.17395 -4.00095,0.47837 -5.52304,1.73954 -1.26117,-1.21768 -2.91373,-1.87001 -4.74025,-1.87001 m -3.00071,19.43937 c 0.73931,0.087 1.78303,0.17395 3.30513,0.26093 1.47861,0.0435 3.08769,-0.087 4.21839,0.087 1.82651,0.30441 2.39186,1.43512 2.39186,2.30489 0,0.86977 -0.52186,1.91349 -1.87,2.6528 -1.47861,0.78279 -3.13118,0.86977 -4.47932,0.86977 -0.91326,0 -2.60931,-0.0435 -4.08792,-0.65233 -1.60907,-0.65233 -1.95698,-1.73954 -1.95698,-2.43536 0,-1.43512 1.34814,-2.47884 2.47884,-3.08768"
         style="fill:#ffffff"
         id="path3031"
         inkscape:connector-curvature="0" />
      <path
         d="m -445.27757,362.01248 3.21814,0 0,-11.43748 c 0,-1.30465 0.13047,-2.30489 0.95675,-3.3921 0.78279,-1.00023 2.69629,-2.78326 4.78374,-2.78326 1.00023,0 2.00047,0.43488 2.69629,1.26116 1.08721,1.30466 1.08721,3.00071 1.08721,4.39234 l 0,11.95934 3.08768,0 0,-12.04632 c 0,-1.52209 -0.0435,-3.17466 -0.7393,-4.78373 -1.00024,-2.21791 -3.00071,-3.47908 -5.26211,-3.47908 -2.69629,0 -5.17514,1.73954 -6.61026,3.95745 l 0,-11.52445 c 0,-0.13047 0,-0.26093 0.13047,-0.3914 0.13047,-0.13047 0.30442,-0.26093 0.30442,-0.47837 0,-0.0435 0,-0.087 -0.0435,-0.13047 l -3.60954,0 0,28.87637"
         style="fill:#ffffff"
         id="path3033"
         inkscape:connector-curvature="0" />
      <path
         d="m -421.92425,342.13823 0,2.56582 4.78374,0 0,14.82959 -5.04467,0 0,2.47884 12.8726,0 0,-2.47884 -4.65327,0 0,-17.39541 -7.9584,0 m 6.4363,-8.61072 c -1.26116,0 -2.2614,1.00023 -2.2614,2.21791 0,1.21768 1.00024,2.21792 2.2614,2.21792 1.26117,0 2.26141,-1.00024 2.26141,-2.21792 0,-1.21768 -1.00024,-2.21791 -2.26141,-2.21791"
         style="fill:#ffffff"
         id="path3035"
         inkscape:connector-curvature="0" />
      <path
         d="m -384.78506,352.18408 c 0,-6.87118 -4.34885,-10.43724 -8.87165,-10.43724 -5.04467,0 -9.39352,4.34885 -9.39352,10.52422 0,6.04489 4.30537,10.30677 9.30654,10.30677 4.69675,0 8.95863,-3.7835 8.95863,-10.39375 m -9.0891,-7.78444 c 2.87024,0 5.91444,2.47885 5.91444,7.9149 0,5.00118 -2.87024,7.52352 -5.74048,7.52352 -3.17466,0 -6.0449,-2.95723 -6.0449,-7.87142 0,-4.87071 2.82675,-7.567 5.87094,-7.567"
         style="fill:#ffffff"
         id="path3037"
         inkscape:connector-curvature="0" />
    </g>
  </g>
</svg>
