<?xml version="1.0" encoding="UTF-8" standalone="no"?>
<!-- Created with Inkscape (http://www.inkscape.org/) -->

<svg
   xmlns:dc="http://purl.org/dc/elements/1.1/"
   xmlns:cc="http://creativecommons.org/ns#"
   xmlns:rdf="http://www.w3.org/1999/02/22-rdf-syntax-ns#"
   xmlns:svg="http://www.w3.org/2000/svg"
   xmlns="http://www.w3.org/2000/svg"
   version="1.1"
   width="248.33539"
   height="248.33539"
   id="svg2">
  <defs id="defs4" >
    <ref id="paramFill" param="color" default="blue"/>
  </defs>
  <metadata
     id="metadata7">
    <rdf:RDF>
      <cc:Work
         rdf:about="">
        <dc:format>image/svg+xml</dc:format>
        <dc:type
           rdf:resource="http://purl.org/dc/dcmitype/StillImage" />
        <dc:title></dc:title>
      </cc:Work>
    </rdf:RDF>
  </metadata>
  <g
     transform="translate(-175.84252,-299.88471)"
     id="layer1">
    <path
       d="m 200,324.0625 0,200 200,0 0,-200 -200,0 z m 41.6875,88.65625 c 2.80238,6e-5 5.52343,0.36726 8.1875,1.09375 2.66398,0.72661 5.36382,1.85276 8.0625,3.375 l 0,10 c -2.52569,-2.2488 -5.06482,-3.87162 -7.625,-4.875 -2.52568,-1.00328 -5.40745,-1.49995 -8.625,-1.5 -5.98545,5e-5 -10.59493,1.9376 -13.8125,5.8125 -3.21761,3.87499 -4.81253,9.39745 -4.8125,16.59375 -3e-5,7.16175 1.59489,12.71547 4.8125,16.625 3.25216,3.87496 7.86165,5.81251 13.8125,5.8125 3.32134,10e-6 6.30803,-0.52791 8.9375,-1.53125 2.62938,-1.03792 5.06359,-2.60493 7.3125,-4.75 l 0,9.90625 c -2.56029,1.4877 -5.20433,2.58595 -7.9375,3.3125 -2.69867,0.76115 -5.47553,1.15625 -8.3125,1.15625 -8.99545,0 -16.03916,-2.69649 -21.125,-8.09375 -5.05129,-5.39723 -7.56251,-12.8885 -7.5625,-22.4375 -1e-5,-9.54895 2.51121,-17.00896 7.5625,-22.40625 5.08584,-5.3972 12.12955,-8.09369 21.125,-8.09375 z m 60.09375,0 c 7.0233,6e-5 12.52121,2.69321 16.5,8.125 4.01328,5.4319 6.03119,12.97561 6.03125,22.59375 -6e-5,9.44521 -2.01797,16.85276 -6.03125,22.25 -4.01339,5.36265 -9.5113,8.0625 -16.5,8.0625 -3.529,0 -6.61725,-0.76229 -9.28125,-2.25 -2.62945,-1.5223 -4.69647,-3.72213 -6.21875,-6.59375 l 0,29.4375 -9.625,0 0,-80.21875 9.625,0 0,7.40625 c 1.59148,-2.87156 3.68305,-5.04349 6.3125,-6.53125 2.664,-1.52224 5.72769,-2.28119 9.1875,-2.28125 z m 33.53125,0.1875 54.84375,21.71875 0,8.59375 -54.84375,21.6875 0,-9.5 44.125,-16.4375 -44.125,-16.59375 0,-9.46875 z m -34.9375,7.90625 c -4.63613,5e-5 -8.14403,1.88179 -10.53125,5.6875 -2.38727,3.7712 -3.56252,9.34946 -3.5625,16.71875 -2e-5,7.33474 1.17523,12.91302 3.5625,16.71875 2.38722,3.80577 5.89512,5.71876 10.53125,5.71875 4.60146,10e-6 8.05691,-1.88509 10.375,-5.65625 2.3526,-3.77114 3.5312,-9.37731 3.53125,-16.78125 -5e-5,-7.40389 -1.17865,-12.9788 -3.53125,-16.75 -2.31809,-3.7711 -5.77354,-5.6562 -10.375,-5.65625 z"
       id="rect2989"
       style="fill:'#paramFill';fill-opacity:1;stroke:none" />
    <g
       id="text2985"
       style="font-size:106.28431702px;font-style:normal;font-variant:normal;font-weight:normal;font-stretch:normal;line-height:125%;letter-spacing:0px;word-spacing:0px;fill:#ffffff;fill-opacity:1;stroke:none;font-family:DejaVu Sans Mono;-inkscape-font-specification:DejaVu Sans Mono" />
    <rect
       width="230.38039"
       height="230.38039"
       x="184.82002"
       y="308.86221"
       id="rect2993"
       style="fill:none;stroke:#fb4934;stroke-width:17.95500565;stroke-miterlimit:4;stroke-opacity:1;stroke-dasharray:none" />
  </g>
</svg>
